<?xml version="1.0" encoding="UTF-8"?>
<!DOCTYPE svg PUBLIC "-//W3C//DTD SVG 1.1//EN" "http://www.w3.org/Graphics/SVG/1.1/DTD/svg11.dtd">
<!-- Creator: CorelDRAW 2021 (64-Bit) -->
<svg xmlns="http://www.w3.org/2000/svg" xml:space="preserve" width="6.92913in" height="9.84252in" version="1.1" style="shape-rendering:geometricPrecision; text-rendering:geometricPrecision; image-rendering:optimizeQuality; fill-rule:evenodd; clip-rule:evenodd"
viewBox="0 0 6929.13 9842.52"
 xmlns:xlink="http://www.w3.org/1999/xlink"
 xmlns:xodm="http://www.corel.com/coreldraw/odm/2003">
 <defs>
  <style type="text/css">
   <![CDATA[
    .fil0 {fill:gray}
    .fil1 {fill:white}
   ]]>
  </style>
 </defs>
 <g id="Layer_x0020_1">
  <metadata id="CorelCorpID_0Corel-Layer"/>
  <rect class="fil0" x="-2.1" y="2.07" width="6929.13" height="9842.52"/>
  <path class="fil1" d="M3098.7 2399.32c-810.1,47.61 -1455.33,719.86 -1455.33,1541.68l-4.27 482.86 -850.6 2635.66c-7.81,24.52 -4.97,49.74 7.11,72.13 9.59,17.41 25.23,29.13 43.35,37.3l990.59 -2444.15c126.13,-310.54 423.88,-510.93 758.94,-510.93l146.39 0c126.49,0 251.2,30.56 363.83,86.69l0 -1901.25zm-818.63 4725.23c50.1,0 90.96,-40.86 90.96,-90.96 0,-50.09 -40.85,-90.96 -90.96,-90.96 -50.1,0 -90.96,40.86 -90.96,90.96 0,50.1 40.86,90.96 90.96,90.96zm2273.96 -90.96c0,50.1 40.85,90.96 90.96,90.96 50.1,0 90.96,-40.86 90.96,-90.96 0,-50.09 -40.86,-90.96 -90.96,-90.96 -50.1,0 -90.96,40.86 -90.96,90.96zm-300.24 90.96l-1582.53 0 740.81 493.87c30.56,20.61 70.35,20.61 101.26,0l740.46 -493.87zm156.34 -227.4l-807.97 -955.07 -279.27 0 -807.97 955.07c8.53,14.21 15.63,29.49 21.32,45.48l1852.57 0c5.69,-15.99 12.79,-31.27 21.32,-45.48zm-401.85 -318.35l0 181.91c0,50.45 -40.5,90.96 -90.96,90.96 -50.45,0 -90.95,-40.51 -90.95,-90.96l0 -181.91c0,-50.46 40.5,-90.96 90.95,-90.96 50.46,0 90.96,40.51 90.96,90.96zm-454.79 -272.88l0 454.79c0,50.45 -40.51,90.96 -90.96,90.96 -50.45,0 -90.96,-40.51 -90.96,-90.96l0 -454.79c0,-50.45 40.5,-90.96 90.96,-90.96 50.46,0 90.96,40.51 90.96,90.96zm-545.75 181.91c50.45,0 90.95,40.51 90.95,90.96l0 181.91c0,50.45 -40.5,90.96 -90.95,90.96 -50.46,0 -90.96,-40.51 -90.96,-90.96l0 -181.91c0,-50.46 40.5,-90.96 90.96,-90.96zm454.78 -909.58c-50.09,0 -90.96,40.85 -90.96,90.95l0 90.96 181.92 0 0 -90.96c0,-50.1 -40.87,-90.95 -90.96,-90.95zm-363.83 -454.8c0,-200.74 -163.08,-363.83 -363.83,-363.83l-87.05 0c-186.19,0 -351.76,111.56 -421.75,283.89l-4.62 11.72c-23.1,56.85 -16.7,118.67 17.76,169.83 34.46,51.17 89.54,80.3 151,80.3l526.57 0c100.19,0 181.91,-81.72 181.91,-181.92zm1436.15 181.92c61.47,0 116.54,-29.13 151,-80.3 34.46,-50.81 40.86,-112.98 17.76,-169.83l-4.62 -11.37c-69.99,-172.68 -235.57,-284.24 -421.75,-284.24l-87.05 0c-200.75,0 -363.83,163.08 -363.83,363.83 0,100.2 81.72,181.92 181.91,181.92l526.57 0zm302.01 21.31c-67.86,100.56 -180.85,160.6 -302.01,160.6l-526.57 0c-200.74,0 -363.83,-163.08 -363.83,-363.83 0,-300.94 244.81,-545.74 545.75,-545.74l87.05 0c260.44,0 492.46,155.98 590.17,397.58l4.62 11.37c45.83,112.27 32.33,239.48 -35.17,340.02zm89.89 -533.31c-97.71,-241.61 -329.72,-397.59 -590.17,-397.59l-146.39 0c-105.52,0 -209.63,26.3 -301.65,76.04 -29.49,15.63 -59.34,28.78 -89.54,40.86 -44.06,92.02 -137.15,155.98 -245.51,155.98l-181.92 0c-108.37,0 -201.46,-63.96 -245.51,-155.98 -30.2,-12.08 -60.41,-25.22 -89.54,-40.86 -92.02,-49.74 -196.13,-76.04 -301.65,-76.04l-146.39 0c-260.8,0 -492.1,155.98 -590.17,397.59l-982.78 2423.9c623.92,158.82 1261.34,254.75 1901.95,289.93l-435.96 -290.64c-50.1,54.72 -121.52,89.89 -201.46,89.89 -150.29,0 -272.87,-122.58 -272.87,-272.88 0,-116.18 73.55,-214.95 176.23,-254.39l-524.79 -786.3c-28.07,-41.93 -16.7,-98.42 25.23,-126.13 41.93,-28.07 98.07,-17.06 126.13,24.87l580.57 870.5 799.08 -944.05 0 -148.87c0,-150.29 122.58,-272.88 272.87,-272.88 150.3,0 272.88,122.59 272.88,272.88l0 148.87 799.08 944.05 580.57 -870.5c27.72,-41.93 84.21,-53.29 126.13,-25.22 41.93,28.07 53.3,84.21 25.22,126.13l-524.79 786.65c102.69,39.44 176.23,138.21 176.23,254.39 0,150.3 -122.58,272.88 -272.87,272.88 -79.94,0 -151.36,-35.17 -201.46,-89.89l-435.96 290.64c640.26,-35.18 1278.04,-131.11 1901.95,-289.93l-982.78 -2423.9zm-99.84 875.83c50.45,0 90.96,40.51 90.96,90.96 0,50.45 -40.5,90.96 -90.96,90.96l-818.63 0c-50.45,0 -90.96,-40.51 -90.96,-90.96 0,-50.45 40.51,-90.96 90.96,-90.96l818.63 0zm-1546.29 -545.75c0,200.75 -163.09,363.83 -363.83,363.83l-526.57 0c-121.16,0 -234.15,-60.04 -302.01,-160.6 -67.51,-100.55 -80.65,-227.75 -35.17,-340.02l4.97 -11.73c97.71,-241.25 329.37,-397.23 589.81,-397.23l87.05 0c300.94,0 545.75,244.8 545.75,545.74zm-363.83 545.75c50.45,0 90.96,40.51 90.96,90.96 0,50.45 -40.51,90.96 -90.96,90.96l-818.63 0c-50.45,0 -90.96,-40.51 -90.96,-90.96 0,-50.45 40.5,-90.96 90.96,-90.96l818.63 0zm909.44 -3269.89c810.1,47.61 1455.33,719.86 1455.33,1541.68l4.27 482.86 850.6 2635.66c7.81,24.52 4.97,49.74 -7.11,72.13 -9.59,17.41 -25.23,29.13 -43.35,37.3l-990.59 -2444.15c-126.13,-310.54 -423.88,-510.93 -758.94,-510.93l-146.39 0c-126.49,0 -251.2,30.56 -363.83,86.69l0 -1901.25zm-545.6 -95.57l0 2092.05c0,50.1 40.86,90.96 90.95,90.96l181.92 0c50.09,0 90.95,-40.86 90.95,-90.96l0 -2092.05c0,-50.1 -40.86,-90.96 -90.95,-90.96l-181.92 0c-50.09,0 -90.95,40.86 -90.95,90.96z"/>
 </g>
</svg>
